<?xml version="1.0" encoding="UTF-8" standalone="no"?>
<svg
   xmlns:dc="http://purl.org/dc/elements/1.1/"
   xmlns:cc="http://creativecommons.org/ns#"
   xmlns:rdf="http://www.w3.org/1999/02/22-rdf-syntax-ns#"
   xmlns:svg="http://www.w3.org/2000/svg"
   xmlns="http://www.w3.org/2000/svg"
   xmlns:sodipodi="http://sodipodi.sourceforge.net/DTD/sodipodi-0.dtd"
   xmlns:inkscape="http://www.inkscape.org/namespaces/inkscape"
   width="48"
   height="48"
   viewBox="0 0 12.7 12.7"
   version="1.1"
   id="svg8"
   inkscape:version="1.0 (4035a4fb49, 2020-05-01)"
   sodipodi:docname="cart.svg">
  <defs
     id="defs2" />
  <sodipodi:namedview
     id="base"
     pagecolor="#ffffff"
     bordercolor="#666666"
     borderopacity="1.0"
     inkscape:pageopacity="0.0"
     inkscape:pageshadow="2"
     inkscape:zoom="15.839192"
     inkscape:cx="25.248395"
     inkscape:cy="22.656048"
     inkscape:document-units="mm"
     inkscape:current-layer="layer1"
     inkscape:document-rotation="0"
     showgrid="false"
     units="px"
     inkscape:window-width="1274"
     inkscape:window-height="1040"
     inkscape:window-x="208"
     inkscape:window-y="0"
     inkscape:window-maximized="0" />
  <metadata
     id="metadata5">
    <rdf:RDF>
      <cc:Work
         rdf:about="">
        <dc:format>image/svg+xml</dc:format>
        <dc:type
           rdf:resource="http://purl.org/dc/dcmitype/StillImage" />
        <dc:title></dc:title>
      </cc:Work>
    </rdf:RDF>
  </metadata>
  <g
     inkscape:label="Layer 1"
     inkscape:groupmode="layer"
     id="layer1">
    <g
       style="fill:#ff0000"
       transform="matrix(0.02454716,0,0,0.02454716,0.07,-0.00988958)"
       id="g111">
      <g
         style="fill:#ff0000"
         id="g54">
	<g
   style="fill:#ff0000"
   id="g52">
		<path
   style="fill:#ff0000"
   d="m 143.022,347.67 h 16.287 277.692 c 6.71,0 12.622,-4.408 14.538,-10.839 l 59.829,-200.888 c 1.367,-4.59 0.485,-9.556 -2.377,-13.396 -2.863,-3.84 -7.371,-6.102 -12.16,-6.102 H 110.789 L 90.377,47.905 C 88.462,41.475 82.549,37.067 75.839,37.067 H 15.169 C 6.792,37.066 0,43.857 0,52.235 0,60.612 6.792,67.404 15.169,67.404 H 64.53 l 20.315,68.211 c 0.062,0.225 0.127,0.448 0.199,0.668 l 53.966,181.202 c -30.804,2.072 -55.237,27.778 -55.237,59.098 0,32.67 26.579,59.249 59.248,59.249 h 15.059 c 6.581,22.563 27.437,39.102 52.097,39.102 24.659,0 45.516,-16.538 52.097,-39.102 h 80.482 c 6.581,22.563 27.437,39.102 52.097,39.102 24.659,0 45.516,-16.538 52.097,-39.102 h 19.543 c 8.377,0 15.169,-6.792 15.169,-15.169 0,-8.377 -6.792,-15.169 -15.169,-15.169 H 446.95 c -6.581,-22.564 -27.437,-39.102 -52.097,-39.102 -24.66,0 -45.517,16.538 -52.097,39.102 h -80.482 c -6.581,-22.564 -27.437,-39.102 -52.097,-39.102 -24.66,0 -45.517,16.538 -52.097,39.102 h -15.059 c -15.942,0 -28.911,-12.97 -28.911,-28.912 0,-15.942 12.97,-28.912 28.912,-28.912 z M 365.546,146.781 h 110.941 l -20.88,70.107 h -90.061 z m -10e-4,100.445 h 81.026 l -20.879,70.107 H 365.545 Z M 253.304,146.781 h 81.905 v 70.107 h -81.905 z m -0.001,100.445 h 81.905 v 70.107 h -81.905 z m -30.335,70.107 v 0 H 170.619 L 149.74,247.226 h 73.228 z M 119.826,146.781 h 103.141 v 70.107 h -82.262 z m 275.028,249.948 c 13.197,0 23.933,10.736 23.933,23.933 0,13.197 -10.736,23.933 -23.933,23.933 -13.197,0 -23.933,-10.736 -23.933,-23.933 0,-13.197 10.736,-23.933 23.933,-23.933 z m -184.676,0 c 13.197,0 23.933,10.736 23.933,23.933 0,13.197 -10.736,23.933 -23.933,23.933 -13.197,0 -23.933,-10.736 -23.933,-23.933 0,-13.197 10.736,-23.933 23.933,-23.933 z"
   id="path50" />

	</g>

</g>
      <g
         style="fill:#ff0000"
         id="g56">
</g>
      <g
         style="fill:#ff0000"
         id="g58">
</g>
      <g
         style="fill:#ff0000"
         id="g60">
</g>
      <g
         style="fill:#ff0000"
         id="g62">
</g>
      <g
         style="fill:#ff0000"
         id="g64">
</g>
      <g
         style="fill:#ff0000"
         id="g66">
</g>
      <g
         style="fill:#ff0000"
         id="g68">
</g>
      <g
         style="fill:#ff0000"
         id="g70">
</g>
      <g
         style="fill:#ff0000"
         id="g72">
</g>
      <g
         style="fill:#ff0000"
         id="g74">
</g>
      <g
         style="fill:#ff0000"
         id="g76">
</g>
      <g
         style="fill:#ff0000"
         id="g78">
</g>
      <g
         style="fill:#ff0000"
         id="g80">
</g>
      <g
         style="fill:#ff0000"
         id="g82">
</g>
      <g
         style="fill:#ff0000"
         id="g84">
</g>
    </g>
  </g>
</svg>
