<svg xmlns="http://www.w3.org/2000/svg" width="48" height="48" viewBox="0 0 12.7 12.7" xmlns:v="https://vecta.io/nano"><path d="M3.58 8.524h7.216c.165 0 .3-.108.357-.266l1.47-4.93c.034-.113.012-.235-.058-.33s-.18-.15-.298-.15H2.8l-.5-1.682C2.24 1.008 2.096.9 1.932.9H.442C.237.9.07 1.067.07 1.272s.167.372.372.372h1.212l1.828 6.14c-.756.05-1.356.682-1.356 1.45 0 .802.652 1.454 1.454 1.454h.37c.162.554.673.96 1.28.96s1.117-.406 1.28-.96h1.976c.162.554.673.96 1.28.96s1.117-.406 1.28-.96h.48c.206 0 .372-.167.372-.372s-.167-.372-.372-.372h-.48c-.162-.554-.673-.96-1.28-.96s-1.117.406-1.28.96H6.508c-.162-.554-.673-.96-1.28-.96s-1.117.406-1.28.96h-.37a.71.71 0 0 1-.71-.71.71.71 0 0 1 .71-.71zm5.462-4.93h2.723l-.513 1.72h-2.21zm0 2.466h1.99l-.513 1.72H9.043zM6.288 3.593h2.01v1.72h-2.01zm0 2.466h2.01v1.72h-2.01zm-.745 1.72h0-1.285l-.513-1.72h1.798zM3.01 3.593h2.532v1.72h-2.02zm6.75 6.135a.59.59 0 0 1 .587.587.59.59 0 0 1-.587.587.59.59 0 0 1-.587-.587.59.59 0 0 1 .587-.587zm-4.533 0a.59.59 0 0 1 .587.587.59.59 0 0 1-.587.587.59.59 0 0 1-.587-.587.59.59 0 0 1 .587-.587z" fill="red"/></svg>