<svg xmlns="http://www.w3.org/2000/svg" height="48" width="48" xmlns:v="https://vecta.io/nano"><path d="M43.013 16.92l-4.638-1.688c1.677-1.386 2.393-3.583 1.88-5.672-1.01-4.103-6.012-5.66-9.172-2.867l-3.202 2.83-.633-4.245c-.626-4.18-5.465-6.2-8.87-3.7-1.702 1.245-2.607 3.392-2.206 5.57L11.8 5.56A4.16 4.16 0 0 0 6.477 8.04l-1.893 5.202c-.26.718.11 1.513.827 1.774l21.63 7.873H6.155c-.764 0-1.384.62-1.384 1.384V43.65a4.16 4.16 0 0 0 4.152 4.152h27.68a4.16 4.16 0 0 0 4.152-4.152V27.88l1.07.4c.715.26 1.51-.106 1.774-.827l1.894-5.202a4.16 4.16 0 0 0-2.482-5.322zm-24.4 28.115H8.923c-.763 0-1.384-.62-1.384-1.384V25.658h11.072zm5.536 0H21.38V25.658h2.768zm8.768-36.267a2.85 2.85 0 1 1 .913 4.81l-4.5-1.638zM20.012 3.813a2.85 2.85 0 0 1 4.497 1.876l.7 4.754-4.5-1.638c-2.142-.78-2.547-3.646-.707-4.992zm.652 13.81L7.658 12.89l1.42-3.902c.26-.717 1.057-1.088 1.774-.827l11.705 4.26zm5.202 1.894l-2.6-.947 1.894-5.202 2.6.947zM37.988 43.65c0 .763-.62 1.384-1.384 1.384h-9.688V25.658h7.73l3.34 1.216V43.65zm4.905-22.356l-1.42 3.902-13.006-4.734 1.894-5.202 11.705 4.26c.717.26 1.088 1.057.827 1.774z" fill="red"/></svg>