<?xml version="1.0" encoding="UTF-8" standalone="no"?>
<svg
   xmlns:dc="http://purl.org/dc/elements/1.1/"
   xmlns:cc="http://creativecommons.org/ns#"
   xmlns:rdf="http://www.w3.org/1999/02/22-rdf-syntax-ns#"
   xmlns:svg="http://www.w3.org/2000/svg"
   xmlns="http://www.w3.org/2000/svg"
   xmlns:sodipodi="http://sodipodi.sourceforge.net/DTD/sodipodi-0.dtd"
   xmlns:inkscape="http://www.inkscape.org/namespaces/inkscape"
   inkscape:version="1.0 (4035a4fb49, 2020-05-01)"
   height="48"
   width="48"
   sodipodi:docname="gift.svg"
   xml:space="preserve"
   viewBox="0 0 48 48"
   y="0px"
   x="0px"
   id="Capa_1"
   version="1.1"><metadata
   id="metadata43"><rdf:RDF><cc:Work
       rdf:about=""><dc:format>image/svg+xml</dc:format><dc:type
         rdf:resource="http://purl.org/dc/dcmitype/StillImage" /><dc:title></dc:title></cc:Work></rdf:RDF></metadata><defs
   id="defs41" /><sodipodi:namedview
   inkscape:current-layer="Capa_1"
   inkscape:window-maximized="1"
   inkscape:window-y="-8"
   inkscape:window-x="-8"
   inkscape:cy="54.004026"
   inkscape:cx="57.135126"
   inkscape:zoom="6.640625"
   showguides="false"
   showgrid="false"
   id="namedview39"
   inkscape:window-height="1017"
   inkscape:window-width="1920"
   inkscape:pageshadow="2"
   inkscape:pageopacity="0"
   guidetolerance="10"
   gridtolerance="10"
   objecttolerance="10"
   borderopacity="1"
   bordercolor="#666666"
   pagecolor="#ffffff" />
<g
   style="fill:#ff0000"
   transform="matrix(0.09240724,0,0,0.09240724,1.4664756,0.4900746)"
   id="g6">
	<g
   style="fill:#ff0000"
   id="g4">
		<path
   style="fill:#ff0000"
   id="path2"
   d="M 449.603,177.797 399.415,159.53 C 417.561,144.536 425.309,120.753 419.754,98.153 408.837,53.75 354.698,36.894 320.494,67.131 l -34.652,30.632 -6.855,-45.94 C 272.209,6.594 219.846,-15.166 183.009,11.784 164.59,25.259 154.792,48.488 159.137,72.074 L 111.819,54.852 C 88.539,46.377 62.7,58.425 54.225,81.708 l -20.49,56.297 c -2.829,7.773 1.179,16.369 8.953,19.197 3.153,1.147 230.742,83.983 234.084,85.199 -9.472,0 -216.903,0 -226.029,0 -8.272,0 -14.978,6.706 -14.978,14.978 v 209.688 c 0,24.776 20.157,44.933 44.933,44.933 h 119.822 59.911 119.822 c 24.776,0 44.933,-20.157 44.933,-44.933 V 296.42 l 11.587,4.218 c 7.737,2.818 16.355,-1.147 19.197,-8.952 l 20.491,-56.297 c 8.472,-23.283 -3.575,-49.118 -26.858,-57.592 z M 185.541,482.045 H 80.697 c -8.259,0 -14.978,-6.719 -14.978,-14.978 v -194.71 h 119.822 z m 59.911,0 H 215.497 V 272.357 h 29.955 z m 94.881,-392.47 c 17.375,-15.361 44.805,-6.744 50.331,15.731 5.893,23.963 -17.269,44.741 -40.451,36.317 -19.718,-7.177 -28.958,-10.54 -48.703,-17.727 z M 200.695,35.962 c 18.72,-13.694 45.237,-2.582 48.668,20.303 l 7.68,51.445 C 251.515,105.698 213.781,91.963 208.344,89.985 185.16,81.542 180.781,50.528 200.695,35.962 Z m 7.056,149.44 L 67.007,134.175 82.375,91.953 c 2.825,-7.761 11.438,-11.775 19.198,-8.952 15.75,5.732 121.811,44.335 126.668,46.103 z m 56.298,20.492 -28.149,-10.246 20.491,-56.297 28.149,10.246 z m 131.18,261.173 c 0,8.259 -6.719,14.978 -14.978,14.978 H 275.408 V 272.357 h 83.666 l 36.156,13.16 v 181.55 z m 53.08,-241.925 -15.367,42.223 -140.744,-51.227 20.491,-56.297 126.669,46.103 c 7.761,2.825 11.776,11.438 8.951,19.198 z" />
	</g>
</g>
<g
   id="g8">
</g>
<g
   id="g10">
</g>
<g
   id="g12">
</g>
<g
   id="g14">
</g>
<g
   id="g16">
</g>
<g
   id="g18">
</g>
<g
   id="g20">
</g>
<g
   id="g22">
</g>
<g
   id="g24">
</g>
<g
   id="g26">
</g>
<g
   id="g28">
</g>
<g
   id="g30">
</g>
<g
   id="g32">
</g>
<g
   id="g34">
</g>
<g
   id="g36">
</g>
</svg>
