<svg xmlns="http://www.w3.org/2000/svg" width="48" height="48" viewBox="0 0 12.7 12.7" fill="red" xmlns:v="https://vecta.io/nano"><path d="M5.566 8.884c-.084-.087-.13-.187-.13-.284 0-.082.164-.62.364-1.194l.4-1.152c.024-.105.015-.108-.383-.108H5.4l.038-.17c.1-.4.5-.7 1.126-.795.392-.066.56-.036.727.132.106.106.118.15.095.347-.015.124-.2.685-.4 1.247l-.362 1.087c0 .044.064.065.203.066.392.001.562.05.562.162 0 .146-.208.432-.4.552-.18.1-.777.243-1.1.243-.16 0-.23-.03-.33-.134zm.64-4.2c-.398-.196-.52-.625-.287-1.007.36-.592 1.283-.324 1.283.374 0 .306-.153.53-.444.652-.277.116-.28.116-.552-.02zm5.4-2.96A3.44 3.44 0 0 0 9.164.708c-.927 0-1.798.36-2.454 1.017l-.343.343-.348-.348C5.363 1.064 4.5.7 3.563.7s-1.795.36-2.448 1.014A3.44 3.44 0 0 0 .1 4.168c.003.928.364 1.795 1.02 2.452l4.987 4.987a.36.36 0 0 0 .252.106.34.34 0 0 0 .252-.104l4.998-4.98c.656-.656 1.017-1.527 1.017-2.454a3.43 3.43 0 0 0-1.012-2.454zm-.5 4.4L6.36 10.85 1.624 6.115c-.52-.52-.807-1.2-.807-1.947a2.72 2.72 0 0 1 .805-1.944 2.73 2.73 0 0 1 1.941-.805 2.74 2.74 0 0 1 1.949.807l.6.6a.36.36 0 0 0 .507 0l.595-.595a2.74 2.74 0 0 1 3.89-.003 2.73 2.73 0 0 1 .805 1.947 2.72 2.72 0 0 1-.805 1.947z"/></svg>