<svg xmlns="http://www.w3.org/2000/svg" width="48" height="48" viewBox="0 0 12.7 12.7" fill="red" xmlns:v="https://vecta.io/nano"><path d="M3.864 6.8h-.98c-.162 0-.294-.132-.294-.294v-.98c0-.162.132-.294.294-.294h.98c.162 0 .294.132.294.294v.98c0 .162-.132.294-.294.294zm2.643-.294v-.98c0-.162-.132-.294-.294-.294h-.98c-.162 0-.294.132-.294.294v.98c0 .162.132.294.294.294h.98c.162 0 .294-.132.294-.294zm2.35 0v-.98c0-.162-.132-.294-.294-.294h-.98c-.162 0-.294.132-.294.294v.98c0 .162.132.294.294.294h.98c.162 0 .294-.132.294-.294zm-2.35 2.35v-.98c0-.162-.132-.294-.294-.294h-.98c-.162 0-.294.132-.294.294v.98c0 .162.132.294.294.294h.98c.162 0 .294-.133.294-.294zm-2.35 0v-.98c0-.162-.132-.294-.294-.294h-.98c-.162 0-.294.132-.294.294v.98c0 .162.132.294.294.294h.98c.162 0 .294-.132.294-.294zm5.874-2.007v-3.18H1.417v7.293c0 .08.066.147.147.147h5.56v1.072H1.417c-.65 0-1.072-.423-1.072-1.072V2.79c0-.65.423-1.175 1.072-1.175h1.175V.343c0-.162.132-.294.294-.294h.98c.162 0 .294.132.294.294v1.273H7.29V.343c0-.162.132-.294.294-.294h.98c.162 0 .294.132.294.294v1.273h1.175c.65 0 1.072.526 1.072 1.175V6.84z"/><path d="M12.367 11.9l-1.092-1.092c-.05-.05-.116-.077-.186-.077h-.178c.302-.386.482-.873.482-1.4 0-1.258-1.02-2.277-2.277-2.277S6.838 8.07 6.838 9.33s1.02 2.277 2.277 2.277c.53 0 1.015-.18 1.4-.482v.178c0 .07.027.137.077.186l1.092 1.092c.103.103.27.103.37 0l.3-.3c.103-.103.103-.27.001-.372zM9.115 10.73a1.4 1.4 0 1 1 0-2.803 1.4 1.4 0 1 1 0 2.803z"/></svg>