<?xml version="1.0" encoding="UTF-8" standalone="no"?>
<svg
   xmlns:dc="http://purl.org/dc/elements/1.1/"
   xmlns:cc="http://creativecommons.org/ns#"
   xmlns:rdf="http://www.w3.org/1999/02/22-rdf-syntax-ns#"
   xmlns:svg="http://www.w3.org/2000/svg"
   xmlns="http://www.w3.org/2000/svg"
   xmlns:sodipodi="http://sodipodi.sourceforge.net/DTD/sodipodi-0.dtd"
   xmlns:inkscape="http://www.inkscape.org/namespaces/inkscape"
   width="48"
   height="48"
   viewBox="0 0 12.7 12.7"
   version="1.1"
   id="svg8"
   inkscape:version="1.0 (4035a4fb49, 2020-05-01)"
   sodipodi:docname="search&amp;book.svg">
  <defs
     id="defs2" />
  <sodipodi:namedview
     id="base"
     pagecolor="#ffffff"
     bordercolor="#666666"
     borderopacity="1.0"
     inkscape:pageopacity="0.0"
     inkscape:pageshadow="2"
     inkscape:zoom="17.708333"
     inkscape:cx="24"
     inkscape:cy="23.118212"
     inkscape:document-units="mm"
     inkscape:current-layer="layer1"
     inkscape:document-rotation="0"
     showgrid="false"
     units="px"
     inkscape:window-width="1274"
     inkscape:window-height="1040"
     inkscape:window-x="156"
     inkscape:window-y="0"
     inkscape:window-maximized="0"
     inkscape:snap-global="false" />
  <metadata
     id="metadata5">
    <rdf:RDF>
      <cc:Work
         rdf:about="">
        <dc:format>image/svg+xml</dc:format>
        <dc:type
           rdf:resource="http://purl.org/dc/dcmitype/StillImage" />
        <dc:title />
      </cc:Work>
    </rdf:RDF>
  </metadata>
  <g
     inkscape:label="Layer 1"
     inkscape:groupmode="layer"
     id="layer1">
    <path
       style="fill:#ff0000;stroke:none;stroke-width:0.0244728;stroke-opacity:1"
       d="M 3.8644839,6.7896968 H 2.8855673 c -0.1615225,0 -0.293676,-0.1321535 -0.293676,-0.2936746 V 5.5171043 c 0,-0.1615213 0.1321535,-0.2936747 0.293676,-0.2936747 h 0.9789166 c 0.161521,0 0.2936758,0.1321534 0.2936758,0.2936747 v 0.9789179 c 0,0.1615211 -0.1321548,0.2936746 -0.2936758,0.2936746 z M 6.5075613,6.4960222 V 5.5171043 c 0,-0.1615213 -0.1321535,-0.2936747 -0.293676,-0.2936747 H 5.2349687 c -0.1615223,0 -0.2936759,0.1321534 -0.2936759,0.2936747 v 0.9789179 c 0,0.1615211 0.1321536,0.2936746 0.2936759,0.2936746 h 0.9789166 c 0.1615225,0 0.293676,-0.1321535 0.293676,-0.2936746 z m 2.3494014,0 V 5.5171043 c 0,-0.1615213 -0.1321536,-0.2936747 -0.293676,-0.2936747 H 7.5843701 c -0.1615209,0 -0.2936759,0.1321534 -0.2936759,0.2936747 v 0.9789179 c 0,0.1615211 0.132155,0.2936746 0.2936759,0.2936746 h 0.9789166 c 0.1615224,0 0.293676,-0.1321535 0.293676,-0.2936746 z M 6.5078308,8.8454236 6.5075613,7.8665071 C 6.5075168,7.7049859 6.3754078,7.5726261 6.2138853,7.5726552 l -0.9789166,1.759e-4 c -0.1615223,2.91e-5 -0.2936759,0.1321548 -0.2936759,0.293676 v 0.9789165 c 0,0.1615225 0.1321536,0.2936094 0.2936759,0.2936761 l 0.9789166,4.042e-4 c 0.1615225,6.65e-5 0.2939899,-0.1325578 0.2939455,-0.2940803 z m -2.3496711,0 V 7.8665071 c 0,-0.1615212 -0.1321548,-0.293676 -0.2936758,-0.293676 H 2.8855673 c -0.1615225,0 -0.293676,0.1321548 -0.293676,0.293676 v 0.9789165 c 0,0.1615225 0.1321535,0.2936761 0.293676,0.2936761 h 0.9789166 c 0.161521,0 0.2936758,-0.1321536 0.2936758,-0.2936761 z M 10.0317,6.8385158 V 3.6571623 H 1.41719 v 7.2929347 c 0,0.08077 0.066077,0.146836 0.1468379,0.146836 l 5.5598639,-4.09e-4 v 1.071703 L 1.41719,12.168714 c -0.64853211,0 -1.07202336,-0.423249 -1.07202336,-1.071781 V 2.7907431 c 0,-0.6485335 0.42349125,-1.1747015 1.07202336,-1.1747015 H 2.5918913 V 0.34344902 c 0,-0.16152116 0.1321535,-0.29367471 0.293676,-0.29367471 h 0.9789166 c 0.161521,0 0.2936758,0.13215355 0.2936758,0.29367471 V 1.6160416 H 7.2906942 V 0.34344902 c 0,-0.16152116 0.132155,-0.29367471 0.2936759,-0.29367471 h 0.9789166 c 0.1615224,0 0.293676,0.13215355 0.293676,0.29367471 V 1.6160416 h 1.1747003 c 0.648533,0 1.071981,0.526168 1.071984,1.1747015 v 4.0477727 z"
       id="path38"
       sodipodi:nodetypes="ssssssssssssssssssssssssssssssssssssssssssssscccsccccssscssssccsssscsccc" />
    <path
       sodipodi:nodetypes="csscsssscscscsccsssss"
       style="fill:#ff0000;stroke-width:0.0109484"
       d="m 12.367014,11.898802 -1.091563,-1.091561 c -0.04927,-0.04927 -0.116054,-0.07663 -0.186123,-0.07663 h -0.17846 c 0.302176,-0.386483 0.481734,-0.8725942 0.481734,-1.4014039 0,-1.2579774 -1.019301,-2.2772783 -2.2772791,-2.2772783 -1.2579771,0 -2.2772779,1.0193009 -2.2772779,2.2772783 0,1.2579769 1.0193008,2.2772789 2.2772779,2.2772789 0.5288104,0 1.0149231,-0.179556 1.4014011,-0.481732 v 0.178459 c 0,0.07007 0.02737,0.136857 0.07664,0.186123 l 1.091562,1.091562 c 0.102917,0.102918 0.269333,0.102918 0.371152,0 l 0.309841,-0.309841 c 0.102918,-0.102918 0.102917,-0.269332 9.97e-4,-0.372248 z M 9.1153229,10.730603 c -0.7740551,0 -1.4014024,-0.626253 -1.4014024,-1.4014036 0,-0.7740557 0.6262518,-1.4014023 1.4014024,-1.4014023 0.7740561,0 1.4014011,0.6262516 1.4014011,1.4014023 0,0.7740556 -0.6262504,1.4014036 -1.4014011,1.4014036 z"
       id="path17" />
  </g>
</svg>
